<svg viewBox="0 0 330 200" xmlns="http://www.w3.org/2000/svg"><g><g><g><g><g><line x1="61.953125" y1="167.1600956541029" x2="56.953125" y2="167.1600956541029" style="visibility: inherit;" fill="rgb(0, 0, 0)" stroke="rgb(204, 204, 204)" stroke-width="1px"></line><line x1="61.953125" y1="147.79624841545527" x2="56.953125" y2="147.79624841545527" style="visibility: inherit;" fill="rgb(0, 0, 0)" stroke="rgb(204, 204, 204)" stroke-width="1px"></line><line x1="61.953125" y1="128.43240117680767" x2="56.953125" y2="128.43240117680767" style="visibility: inherit;" fill="rgb(0, 0, 0)" stroke="rgb(204, 204, 204)" stroke-width="1px"></line><line x1="61.953125" y1="109.06855393816008" x2="56.953125" y2="109.06855393816008" style="visibility: inherit;" fill="rgb(0, 0, 0)" stroke="rgb(204, 204, 204)" stroke-width="1px"></line><line x1="61.953125" y1="89.70470669951246" x2="56.953125" y2="89.70470669951246" style="visibility: inherit;" fill="rgb(0, 0, 0)" stroke="rgb(204, 204, 204)" stroke-width="1px"></line><line x1="61.953125" y1="70.34085946086486" x2="56.953125" y2="70.34085946086486" style="visibility: inherit;" fill="rgb(0, 0, 0)" stroke="rgb(204, 204, 204)" stroke-width="1px"></line><line x1="61.953125" y1="50.97701222221725" x2="56.953125" y2="50.97701222221725" style="visibility: inherit;" fill="rgb(0, 0, 0)" stroke="rgb(204, 204, 204)" stroke-width="1px"></line><line x1="61.953125" y1="31.613164983569646" x2="56.953125" y2="31.613164983569646" style="visibility: inherit;" fill="rgb(0, 0, 0)" stroke="rgb(204, 204, 204)" stroke-width="1px"></line><line x1="61.953125" y1="12.249317744922031" x2="56.953125" y2="12.249317744922031" style="visibility: inherit;" fill="rgb(0, 0, 0)" stroke="rgb(204, 204, 204)" stroke-width="1px"></line></g><g transform="translate(51.953125, 0)"><text x="0" y="167.1600956541029" dx="0em" dy="0.3em" style="text-anchor: end; visibility: inherit; font-family: Roboto, sans-serif; font-size: 12px; font-weight: 200;" fill="rgb(50, 49, 63)" stroke="none" stroke-width="1px">0.976</text><text x="0" y="147.79624841545527" dx="0em" dy="0.3em" style="text-anchor: end; visibility: hidden; font-family: Roboto, sans-serif; font-size: 12px; font-weight: 200;" fill="rgb(50, 49, 63)" stroke="none" stroke-width="1px">0.978</text><text x="0" y="128.43240117680767" dx="0em" dy="0.3em" style="text-anchor: end; visibility: inherit; font-family: Roboto, sans-serif; font-size: 12px; font-weight: 200;" fill="rgb(50, 49, 63)" stroke="none" stroke-width="1px">0.98</text><text x="0" y="109.06855393816008" dx="0em" dy="0.3em" style="text-anchor: end; visibility: hidden; font-family: Roboto, sans-serif; font-size: 12px; font-weight: 200;" fill="rgb(50, 49, 63)" stroke="none" stroke-width="1px">0.982</text><text x="0" y="89.70470669951246" dx="0em" dy="0.3em" style="text-anchor: end; visibility: inherit; font-family: Roboto, sans-serif; font-size: 12px; font-weight: 200;" fill="rgb(50, 49, 63)" stroke="none" stroke-width="1px">0.984</text><text x="0" y="70.34085946086486" dx="0em" dy="0.3em" style="text-anchor: end; visibility: hidden; font-family: Roboto, sans-serif; font-size: 12px; font-weight: 200;" fill="rgb(50, 49, 63)" stroke="none" stroke-width="1px">0.986</text><text x="0" y="50.97701222221725" dx="0em" dy="0.3em" style="text-anchor: end; visibility: inherit; font-family: Roboto, sans-serif; font-size: 12px; font-weight: 200;" fill="rgb(50, 49, 63)" stroke="none" stroke-width="1px">0.988</text><text x="0" y="31.613164983569646" dx="0em" dy="0.3em" style="text-anchor: end; visibility: hidden; font-family: Roboto, sans-serif; font-size: 12px; font-weight: 200;" fill="rgb(50, 49, 63)" stroke="none" stroke-width="1px">0.99</text><text x="0" y="12.249317744922031" dx="0em" dy="0.3em" style="text-anchor: end; visibility: inherit; font-family: Roboto, sans-serif; font-size: 12px; font-weight: 200;" fill="rgb(50, 49, 63)" stroke="none" stroke-width="1px">0.992</text></g><line x1="61.953125" y1="0" x2="61.953125" y2="178" fill="rgb(0, 0, 0)" stroke="rgb(204, 204, 204)" stroke-width="1px"></line></g></g><g transform="translate(61, 0)" clip-path="url(#clip_0)"><clipPath id="clip_0"><rect width="268" height="178"></rect></clipPath><g><g><g><line x1="19.03606788127606" y1="0" x2="19.03606788127606" y2="178" fill="rgb(0, 0, 0)" stroke="rgb(60, 60, 60)" stroke-width="1px" opacity="0.25"></line><line x1="50.625695046003095" y1="0" x2="50.625695046003095" y2="178" fill="rgb(0, 0, 0)" stroke="rgb(60, 60, 60)" stroke-width="1px" opacity="0.25"></line><line x1="82.21532221073014" y1="0" x2="82.21532221073014" y2="178" fill="rgb(0, 0, 0)" stroke="rgb(60, 60, 60)" stroke-width="1px" opacity="0.25"></line><line x1="113.80494937545717" y1="0" x2="113.80494937545717" y2="178" fill="rgb(0, 0, 0)" stroke="rgb(60, 60, 60)" stroke-width="1px" opacity="0.25"></line><line x1="145.3945765401842" y1="0" x2="145.3945765401842" y2="178" fill="rgb(0, 0, 0)" stroke="rgb(60, 60, 60)" stroke-width="1px" opacity="0.25"></line><line x1="176.98420370491124" y1="0" x2="176.98420370491124" y2="178" fill="rgb(0, 0, 0)" stroke="rgb(60, 60, 60)" stroke-width="1px" opacity="0.25"></line><line x1="208.5738308696383" y1="0" x2="208.5738308696383" y2="178" fill="rgb(0, 0, 0)" stroke="rgb(60, 60, 60)" stroke-width="1px" opacity="0.25"></line><line x1="240.16345803436533" y1="0" x2="240.16345803436533" y2="178" fill="rgb(0, 0, 0)" stroke="rgb(60, 60, 60)" stroke-width="1px" opacity="0.25"></line></g><g><line x1="0" y1="167.1600956541029" x2="268.046875" y2="167.1600956541029" fill="rgb(0, 0, 0)" stroke="rgb(60, 60, 60)" stroke-width="1px" opacity="0.25"></line><line x1="0" y1="147.79624841545527" x2="268.046875" y2="147.79624841545527" fill="rgb(0, 0, 0)" stroke="rgb(60, 60, 60)" stroke-width="1px" opacity="0.25"></line><line x1="0" y1="128.43240117680767" x2="268.046875" y2="128.43240117680767" fill="rgb(0, 0, 0)" stroke="rgb(60, 60, 60)" stroke-width="1px" opacity="0.25"></line><line x1="0" y1="109.06855393816008" x2="268.046875" y2="109.06855393816008" fill="rgb(0, 0, 0)" stroke="rgb(60, 60, 60)" stroke-width="1px" opacity="0.25"></line><line x1="0" y1="89.70470669951246" x2="268.046875" y2="89.70470669951246" fill="rgb(0, 0, 0)" stroke="rgb(60, 60, 60)" stroke-width="1px" opacity="0.25"></line><line x1="0" y1="70.34085946086486" x2="268.046875" y2="70.34085946086486" fill="rgb(0, 0, 0)" stroke="rgb(60, 60, 60)" stroke-width="1px" opacity="0.25"></line><line x1="0" y1="50.97701222221725" x2="268.046875" y2="50.97701222221725" fill="rgb(0, 0, 0)" stroke="rgb(60, 60, 60)" stroke-width="1px" opacity="0.25"></line><line x1="0" y1="31.613164983569646" x2="268.046875" y2="31.613164983569646" fill="rgb(0, 0, 0)" stroke="rgb(60, 60, 60)" stroke-width="1px" opacity="0.25"></line><line x1="0" y1="12.249317744922031" x2="268.046875" y2="12.249317744922031" fill="rgb(0, 0, 0)" stroke="rgb(60, 60, 60)" stroke-width="1px" opacity="0.25"></line></g></g></g><g><g><line x1="0" y1="9616.717548114126" x2="268.046875" y2="9616.717548114126" fill="rgb(0, 0, 0)" stroke="rgb(153, 153, 153)" stroke-width="1.5px"></line></g></g><g><g><line x1="19.03606788127606" y1="0" x2="19.03606788127606" y2="178" fill="rgb(0, 0, 0)" stroke="rgb(153, 153, 153)" stroke-width="1.5px"></line></g></g><g><g><g><g><g><path stroke="rgb(0, 119, 187)" stroke-width="2px" d="M19.03606788127606,46.13605964595714L20.615549239512415,29.19276717935561L22.195030597748765,27.463859784805614L23.774511955985115,21.361720026802285L25.35399331422147,23.288502061514464L26.93347467245782,23.531394691359505L28.512956030694173,18.88865983751362L30.092437388930524,20.12649627380717L31.671918747166874,26.7240905851093L33.25140010540323,41.54950943928449L34.830881463639585,48.05513374125498L36.410362821875935,46.12150221548278L37.989844180112286,44.96402064370576L39.569325538348636,50.08425067593127L41.148806896584986,68.26469241575396L42.72828825482134,57.47371984466864L44.307769613057694,102.5176449192943L45.887250971294044,95.45540275343603L47.466732329530394,127.6248069271877L49.046213687766745,97.35178677052005L50.625695046003095,78.41421449005952L52.205176404239445,60.85531943338976L53.7846577624758,53.4184227850447L55.36413912071215,43.53444310407925L56.9436204789485,35.667604552711474L58.52310183718485,29.785720961420065L60.102583195421204,44.4586518368053L61.68206455365756,42.03134546596533L63.26154591189391,47.15861140524527L64.84102727013025,52.94612798881152L66.42050862836662,53.320368705217135L67.99998998660297,45.41213207205989L69.57947134483932,38.3433739635563L71.15895270307567,40.68599672018423L72.73843406131202,33.958558972375826L74.31791541954837,40.378693309980676L75.89739677778473,45.779907881704055L77.47687813602107,43.98589336953973L79.05635949425744,38.6494238604055L80.63584085249377,38.93315138034828L82.21532221073014,67.7617898635738L83.79480356896649,66.46982657642009L85.37428492720284,71.89095377908163L86.95376628543919,56.94159411738265L88.53324764367554,50.68290511695907L90.11272900191189,55.83515452014643L91.69221036014824,46.92100419007338L93.27169171838459,45.83257478894963L94.85117307662095,46.72842031521914L96.43065443485729,66.2426460287639L98.01013579309365,73.3037794509102L99.58961715132999,76.76600792072007L101.16909850956635,72.64680899477653L102.74857986780272,64.75343604989664L104.32806122603905,111.1379110072723L105.90754258427542,94.04463326520914L107.48702394251175,119.03071495051361L109.06650530074812,96.45649921070208L110.64598665898447,89.49584698388223L112.22546801722082,79.12291963997785L113.80494937545717,82.58107761955712L115.38443073369352,136.1638123408223L116.96391209192987,120.67833282742225L118.54339345016623,120.68184913110106L120.12287480840257,98.22186213755968L121.70235616663894,98.30050391471435L123.28183752487527,80.14565300186857L124.86131888311164,79.32199804933246L126.44080024134797,114.06985340834154L128.02028159958434,130.65873666218417L129.59976295782067,104.20799465620931L131.17924431605704,97.63212262929622L132.75872567429337,88.6520870330849L134.33820703252974,92.55863885203144L135.91768839076607,94.12811835994572L137.49716974900244,104.36437924136612L139.0766511072388,81.46039261245303L140.65613246547514,82.82176861033896L142.2356138237115,105.71334977556992L143.81509518194784,111.70285929999116L145.3945765401842,99.41811462090865L146.97405789842057,98.63091419547429L148.5535392566569,102.03131352757363L150.13302061489327,92.06605315550519L151.7125019731296,83.37597013760808L153.29198333136597,83.97111512543242L154.8714646896023,83.94086090887691L156.45094604783867,86.63363517360028L158.03042740607503,123.49157889801207L159.60990876431137,110.36406596708116L161.1893901225477,102.87489941777271L162.7688714807841,84.0520830964058L164.34835283902044,131.6245620376173L165.92783419725677,104.01280746296878L167.5073155554931,95.57853510214886L169.0867969137295,108.33289729059345L170.66627827196584,95.07255182986411L172.24575963020217,87.89079613687969L173.82524098843854,150.9680330483395L175.4047223466749,120.26629207526163" style="fill: none;" fill="none"></path></g><g><path style="fill: none;" stroke="rgb(255, 112, 67)" stroke-width="2px" d="M20.615549239512415,190.13442463305458L22.195030597748765,109.2561838251447L23.774511955985115,69.12525085455987L25.35399331422147,48.235968153079035L26.93347467245782,36.72530466099477L28.512956030694173,30.703761409105976L30.092437388930524,28.775923015948983L31.671918747166874,25.488556197947418L33.25140010540323,23.01794836914678L34.830881463639585,20.573532034069952L36.410362821875935,19.047795493947994L37.989844180112286,18.393124137848055L39.569325538348636,18.000868982941835L41.148806896584986,17.571951002051037L42.72828825482134,16.862626753670504L44.307769613057694,16.695508443110885L45.887250971294044,16.4662056649414L47.466732329530394,16.97409302668253L49.046213687766745,17.278805635891306L50.625695046003095,15.331433525408826L52.205176404239445,17.325981048228417L53.7846577624758,15.618072422193753L55.36413912071215,14.593335878851512L56.9436204789485,15.656672624889952L58.52310183718485,14.2937911352107L60.102583195421204,12.76601439728675L61.68206455365756,12.236690802392479L63.26154591189391,11.209047986592989L64.84102727013025,13.04508545846177L66.42050862836662,12.145829227022553L67.99998998660297,11.993616804577181L69.57947134483932,11.127606903369426L71.15895270307567,12.092732055426604L72.73843406131202,12.542539500292722L74.31791541954837,12.231642977446182L75.89739677778473,13.206897865682976L77.47687813602107,13.27567279219358L79.05635949425744,13.316937747937185L80.63584085249377,13.600001139518417L82.21532221073014,14.415253966795209L83.79480356896649,15.485186641849692L85.37428492720284,15.998109455113578L86.95376628543919,14.692326162568241L88.53324764367554,13.19880758183737L90.11272900191189,12.49636703813442L91.69221036014824,11.10654968877986L93.27169171838459,10.4019269056495L94.85117307662095,11.20534900667916L96.43065443485729,12.139377289767062L98.01013579309365,12.506123654990027L99.58961715132999,12.984245056925069L101.16909850956635,11.721983896129068L102.74857986780272,11.674675804929928L104.32806122603905,13.58276616141501L105.90754258427542,15.05032777133121L107.48702394251175,15.349852923405775L109.06650530074812,15.14245764044635L110.64598665898447,15.21169107529703L112.22546801722082,13.058451507156102L113.80494937545717,12.734860789394007L115.38443073369352,13.960572734242588L116.96391209192987,11.404292127667786L118.54339345016623,11.290390139227693L120.12287480840257,12.964853552742927L121.70235616663894,16.29311718625755L123.28183752487527,19.45209899411772L124.86131888311164,18.313623053103687L126.44080024134797,16.727049113640266L128.02028159958434,13.709592747358405L129.59976295782067,14.351972139443848L131.17924431605704,16.35093675482514L132.75872567429337,18.131327337928212L134.33820703252974,19.134927874567886L135.91768839076607,17.994283589973275L137.49716974900244,19.052701625794274L139.0766511072388,17.10586244403074L140.65613246547514,20.972502150082242L142.2356138237115,19.484169364531546L143.81509518194784,17.10666950447161L145.3945765401842,15.421865170586523L146.97405789842057,16.218420990057766L148.5535392566569,15.792635271839792L150.13302061489327,16.247212446185554L151.7125019731296,14.002702560760092L153.29198333136597,16.915826591067862L154.8714646896023,16.79185961127248L156.45094604783867,14.652198255839108L158.03042740607503,18.015572613392244L159.60990876431137,16.28991443196447L161.1893901225477,14.996445940306316L162.7688714807841,16.479547452540288L164.34835283902044,15.497566961901265L165.92783419725677,14.779111041069669L167.5073155554931,15.961805303748827L169.0867969137295,15.767702651454758L170.66627827196584,15.78027785147968L172.24575963020217,14.690663992016097L173.82524098843854,13.197810279660668L175.4047223466749,11.7210862383714" fill="none"></path></g></g></g></g><g opacity="0.2"><g><g><g><path stroke="rgb(0, 119, 187)" stroke-width="2px" d="M19.03606788127606,46.13605964595714L20.615549239512415,19.026791699394686L22.195030597748765,25.804108686035296L23.774511955985115,14.185603671386506L25.35399331422147,25.804108686035296L26.93347467245782,23.8674026397848L28.512956030694173,12.249474712754076L30.092437388930524,21.931273681152373L31.671918747166874,36.45426067755885L33.25140010540323,63.56352862412128L34.830881463639585,57.75456466060593L36.410362821875935,43.231577664199456L37.989844180112286,43.231577664199456L39.569325538348636,57.75456466060593L41.148806896584986,95.5139845986919L42.72828825482134,41.294871617948964L44.307769613057694,170.06447145173863L45.887250971294044,84.86383260716836L47.466732329530394,175.87401250287206L49.046213687766745,51.94502360947249L50.625695046003095,50.00889465084006L52.205176404239445,34.51755463130835L53.7846577624758,42.2632246410742L55.36413912071215,28.70859066779298L56.9436204789485,23.8674026397848L58.52310183718485,20.962920658027116L60.102583195421204,66.46801060587897L61.68206455365756,38.39038963619127L63.26154591189391,54.849505591230184L64.84102727013025,61.62739966548885L66.42050862836662,53.88172965572299L67.99998998660297,33.54977869580116L69.57947134483932,27.740237644667722L71.15895270307567,44.199930687324716L72.73843406131202,23.8674026397848L74.31791541954837,50.00889465084006L75.89739677778473,53.88172965572299L77.47687813602107,41.294871617948964L79.05635949425744,30.64471962642541L80.63584085249377,39.35874265931653L82.21532221073014,111.00474753060557L83.79480356896649,64.53188164724654L85.37428492720284,80.02264457916019L86.95376628543919,34.51755463130835L88.53324764367554,41.294871617948964L90.11272900191189,63.56352862412128L91.69221036014824,33.54977869580116L93.27169171838459,44.199930687324716L94.85117307662095,48.07218860458957L96.43065443485729,95.5139845986919L98.01013579309365,83.89547958404312L99.58961715132999,81.95935062541068L101.16909850956635,66.46801060587897L102.74857986780272,52.91337663259775L104.32806122603905,180.71462344326218L105.90754258427542,68.40471665212947L107.48702394251175,156.5098374784574L109.06650530074812,62.59517560099605L110.64598665898447,79.05486864365302L112.22546801722082,63.56352862412128L113.80494937545717,87.76831458892606L115.38443073369352,216.53791442271572L116.96391209192987,97.45011355732436L118.54339345016623,120.68712358662194L120.12287480840257,64.53188164724654L121.70235616663894,98.4184665804496L123.28183752487527,52.91337663259775L124.86131888311164,78.08651562052776L126.44080024134797,166.1916364468557L128.02028159958434,155.54206154295022L129.59976295782067,64.53188164724654L131.17924431605704,87.76831458892606L132.75872567429337,75.18203363877008L134.33820703252974,98.4184665804496L135.91768839076607,96.48233762181715L137.49716974900244,119.71877056349668L139.0766511072388,47.10441266908238L140.65613246547514,84.86383260716836L142.2356138237115,140.0507215234185L143.81509518194784,120.68712358662194L145.3945765401842,80.99099760228545L146.97405789842057,97.45011355732436L148.5535392566569,107.13191252572264L150.13302061489327,77.1181625974025L151.7125019731296,70.34084561076189L153.29198333136597,84.86383260716836L154.8714646896023,83.89547958404312L156.45094604783867,90.67279657068372L158.03042740607503,178.77849448462973L159.60990876431137,90.67279657068372L161.1893901225477,91.64114959380898L162.7688714807841,55.817858614355416L164.34835283902044,202.9832804494345L165.92783419725677,62.59517560099605L167.5073155554931,82.92712656091787L169.0867969137295,127.46444057326254L170.66627827196584,75.18203363877008L172.24575963020217,77.1181625974025L173.82524098843854,245.58388841552866L175.4047223466749,74.21368061564483" style="fill: none;" fill="none"></path></g><g><path style="fill: none;" stroke="rgb(255, 112, 67)" stroke-width="2px" d="M19.03606788127606,434.704157172079L20.615549239512415,43.39258510964162L22.195030597748765,31.613072649550666L23.774511955985115,21.931273681152373L25.35399331422147,20.962920658027116L26.93347467245782,20.801913212584967L28.512956030694173,22.0928582142126L30.092437388930524,25.965116131477462L31.671918747166874,20.640328679524735L33.25140010540323,19.349383677897084L34.830881463639585,16.929078207702027L36.410362821875935,16.767493674641795L37.989844180112286,17.413254719264653L39.569325538348636,17.413254719264653L41.148806896584986,16.929078207702027L42.72828825482134,15.799140651516558L44.307769613057694,16.444901696139418L45.887250971294044,16.12230971763702L47.466732329530394,17.73584669776705L49.046213687766745,17.73584669776705L50.625695046003095,12.410482158196242L52.205176404239445,20.31773670102234L53.7846577624758,13.056243202819102L55.36413912071215,13.056243202819102L56.9436204789485,17.25167018620442L58.52310183718485,12.249474712754076L60.102583195421204,10.474353199563813L61.68206455365756,11.44270622268907L63.26154591189391,9.667584709498787L64.84102727013025,15.799140651516558L66.42050862836662,10.79694517806621L67.99998998660297,11.765298201191467L69.57947134483932,9.828592154940953L71.15895270307567,13.54041971438173L72.73843406131202,13.217250648261269L74.31791541954837,11.765298201191467L75.89739677778473,14.669780182949134L77.47687813602107,13.378835181321499L79.05635949425744,13.378835181321499L80.63584085249377,14.024596225944359L82.21532221073014,15.638133206074391L83.79480356896649,17.090085653144193L85.37428492720284,16.767493674641795L86.95376628543919,12.733651224316704L88.53324764367554,10.958529711126442L90.11272900191189,11.44270622268907L91.69221036014824,9.021823664875948L93.27169171838459,9.34499273099641L94.85117307662095,12.410482158196242L96.43065443485729,13.54041971438173L98.01013579309365,13.056243202819102L99.58961715132999,13.701427159823897L101.16909850956635,9.828592154940953L102.74857986780272,11.603713668131217L104.32806122603905,16.444901696139418L105.90754258427542,17.25167018620442L107.48702394251175,15.799140651516558L109.06650530074812,14.831364716009364L110.64598665898447,15.315541227571993L112.22546801722082,9.828592154940953L113.80494937545717,12.249474712754076L115.38443073369352,15.799140651516558L116.96391209192987,7.569871217806127L118.54339345016623,11.119537156568608L120.12287480840257,15.47654867301416L121.70235616663894,21.28551263652951L123.28183752487527,24.190571705905263L124.86131888311164,16.605909141581563L126.44080024134797,14.347188204446736L128.02028159958434,9.183408197936178L129.59976295782067,15.315541227571993L131.17924431605704,19.349383677897084L132.75872567429337,20.801913212584967L134.33820703252974,20.640328679524735L135.91768839076607,16.283317163079165L137.49716974900244,20.640328679524735L139.0766511072388,14.185603671386506L140.65613246547514,26.772461709160552L142.2356138237115,17.25167018620442L143.81509518194784,13.54041971438173L145.3945765401842,12.89465866975887L146.97405789842057,17.413254719264653L148.5535392566569,15.153956694511763L150.13302061489327,16.929078207702027L151.7125019731296,10.635937732624043L153.29198333136597,21.28551263652951L154.8714646896023,16.605909141581563L156.45094604783867,11.44270622268907L158.03042740607503,23.060634149719796L159.60990876431137,13.701427159823897L161.1893901225477,13.056243202819102L162.7688714807841,18.70419972089231L164.34835283902044,14.024596225944359L165.92783419725677,13.701427159823897L167.5073155554931,17.73584669776705L169.0867969137295,15.47654867301416L170.66627827196584,15.799140651516558L172.24575963020217,13.056243202819102L173.82524098843854,10.958529711126442L175.4047223466749,9.506000176438556" fill="none"></path></g></g></g></g></g></g><g transform="translate(61, 178)" clip-path="url(#clip_1)"><clipPath id="clip_1"><rect width="268" height="22"></rect></clipPath><g><g><line x1="19.03606788127606" y1="0" x2="19.03606788127606" y2="5" style="visibility: inherit;" fill="rgb(0, 0, 0)" stroke="rgb(204, 204, 204)" stroke-width="1px"></line><line x1="50.625695046003095" y1="0" x2="50.625695046003095" y2="5" style="visibility: inherit;" fill="rgb(0, 0, 0)" stroke="rgb(204, 204, 204)" stroke-width="1px"></line><line x1="82.21532221073014" y1="0" x2="82.21532221073014" y2="5" style="visibility: inherit;" fill="rgb(0, 0, 0)" stroke="rgb(204, 204, 204)" stroke-width="1px"></line><line x1="113.80494937545717" y1="0" x2="113.80494937545717" y2="5" style="visibility: inherit;" fill="rgb(0, 0, 0)" stroke="rgb(204, 204, 204)" stroke-width="1px"></line><line x1="145.3945765401842" y1="0" x2="145.3945765401842" y2="5" style="visibility: inherit;" fill="rgb(0, 0, 0)" stroke="rgb(204, 204, 204)" stroke-width="1px"></line><line x1="176.98420370491124" y1="0" x2="176.98420370491124" y2="5" style="visibility: inherit;" fill="rgb(0, 0, 0)" stroke="rgb(204, 204, 204)" stroke-width="1px"></line><line x1="208.5738308696383" y1="0" x2="208.5738308696383" y2="5" style="visibility: inherit;" fill="rgb(0, 0, 0)" stroke="rgb(204, 204, 204)" stroke-width="1px"></line><line x1="240.16345803436533" y1="0" x2="240.16345803436533" y2="5" style="visibility: inherit;" fill="rgb(0, 0, 0)" stroke="rgb(204, 204, 204)" stroke-width="1px"></line></g><g transform="translate(0, 8)"><text x="19.03606788127606" y="0" dx="0em" dy="0.95em" style="text-anchor: middle; visibility: inherit; font-family: Roboto, sans-serif; font-size: 12px; font-weight: 200;" fill="rgb(50, 49, 63)" stroke="none" stroke-width="1px">0</text><text x="50.625695046003095" y="0" dx="0em" dy="0.95em" style="text-anchor: middle; visibility: inherit; font-family: Roboto, sans-serif; font-size: 12px; font-weight: 200;" fill="rgb(50, 49, 63)" stroke="none" stroke-width="1px">20</text><text x="82.21532221073014" y="0" dx="0em" dy="0.95em" style="text-anchor: middle; visibility: inherit; font-family: Roboto, sans-serif; font-size: 12px; font-weight: 200;" fill="rgb(50, 49, 63)" stroke="none" stroke-width="1px">40</text><text x="113.80494937545717" y="0" dx="0em" dy="0.95em" style="text-anchor: middle; visibility: inherit; font-family: Roboto, sans-serif; font-size: 12px; font-weight: 200;" fill="rgb(50, 49, 63)" stroke="none" stroke-width="1px">60</text><text x="145.3945765401842" y="0" dx="0em" dy="0.95em" style="text-anchor: middle; visibility: inherit; font-family: Roboto, sans-serif; font-size: 12px; font-weight: 200;" fill="rgb(50, 49, 63)" stroke="none" stroke-width="1px">80</text><text x="176.98420370491124" y="0" dx="0em" dy="0.95em" style="text-anchor: middle; visibility: inherit; font-family: Roboto, sans-serif; font-size: 12px; font-weight: 200;" fill="rgb(50, 49, 63)" stroke="none" stroke-width="1px">100</text><text x="208.5738308696383" y="0" dx="0em" dy="0.95em" style="text-anchor: middle; visibility: inherit; font-family: Roboto, sans-serif; font-size: 12px; font-weight: 200;" fill="rgb(50, 49, 63)" stroke="none" stroke-width="1px">120</text><text x="240.16345803436533" y="0" dx="0em" dy="0.95em" style="text-anchor: middle; visibility: inherit; font-family: Roboto, sans-serif; font-size: 12px; font-weight: 200;" fill="rgb(50, 49, 63)" stroke="none" stroke-width="1px">140</text></g><line x1="0" y1="0" x2="268.046875" y2="0" fill="rgb(0, 0, 0)" stroke="rgb(204, 204, 204)" stroke-width="1px"></line></g></g></g></g></svg>